<svg width="1005" height="901" viewBox="0 0 1005 901" fill="none" xmlns="http://www.w3.org/2000/svg">
<g clip-path="url(#clip0)">
<path d="M1.15216 783.775C6.60781 847.806 29.7159 900.781 29.7159 900.781L1004.72 901L1004.92 0L685.918 0.92835C685.918 0.92835 560.721 -13.4398 432.369 88.1013C428.358 91.2704 424.427 94.5262 420.576 97.8687C402.523 113.484 386.114 130.904 371.605 149.858C332.419 201.233 307.657 262.138 299.875 326.282C293.684 376.54 277.999 440.417 239.808 493.348C238.497 495.158 237.163 496.957 235.806 498.747C209.469 533.321 173.052 562.733 122.788 579.802C75.2445 595.951 44.8586 622.134 26.2217 652.78C1.74258 692.985 -2.51817 740.864 1.15216 783.775Z" fill="#1CB48F"/>
<path opacity="0.1" d="M1004.82 171.887H833.817V652.887H1004.82V171.887Z" fill="black"/>
<path opacity="0.1" d="M437.817 652.887H635.817V277.887H437.817L437.817 652.887Z" fill="black"/>
<path opacity="0.1" d="M239.817 493.407V652.887H437.817V149.887H371.537C332.363 201.272 307.614 262.182 299.847 326.327C293.667 376.587 277.997 440.467 239.817 493.407Z" fill="black"/>
<path opacity="0.1" d="M635.817 652.887H833.817L833.817 69.8872H635.817L635.817 652.887Z" fill="black"/>
<path opacity="0.1" d="M1.2271 783.887H1004.82V652.887H26.2672C1.7971 693.097 -2.4529 740.977 1.2271 783.887Z" fill="white"/>
<g opacity="0.5">
<g opacity="0.6">
<path d="M532.947 376.843C532.947 376.843 396.243 582.589 417.198 642.864Z" fill="#F55F44"/>
<path d="M532.947 376.843C532.947 376.843 396.243 582.589 417.198 642.864" stroke="#535461" stroke-miterlimit="10"/>
</g>
<g opacity="0.6">
<path d="M574.261 509.711C574.261 509.711 535.974 481.904 468.842 484.228Z" fill="#F55F44"/>
<path d="M574.261 509.711C574.261 509.711 535.974 481.904 468.842 484.228" stroke="#535461" stroke-miterlimit="10"/>
</g>
<g opacity="0.6">
<path d="M455.24 510.302C455.24 510.302 453.629 459.849 408.797 425.167Z" fill="#F55F44"/>
<path d="M455.24 510.302C455.24 510.302 453.629 459.849 408.797 425.167" stroke="#535461" stroke-miterlimit="10"/>
</g>
<g opacity="0.6">
<path d="M521.173 594.803C521.173 594.803 469.786 553.259 434.686 554.63Z" fill="#F55F44"/>
<path d="M521.173 594.803C521.173 594.803 469.786 553.259 434.686 554.63" stroke="#535461" stroke-miterlimit="10"/>
</g>
<g opacity="0.6">
<path d="M425.535 578.473C425.535 578.473 403.387 548.279 363.779 540.439Z" fill="#F55F44"/>
<path d="M425.535 578.473C425.535 578.473 403.387 548.279 363.779 540.439" stroke="#535461" stroke-miterlimit="10"/>
</g>
</g>
<g opacity="0.5">
<path opacity="0.6" d="M822.04 377.28C822.04 377.28 865.813 620.391 922.661 649.384" stroke="#535461" stroke-miterlimit="10"/>
<path opacity="0.6" d="M943.832 444.566C943.832 444.566 896.953 451.003 850.115 499.152" stroke="#535461" stroke-miterlimit="10"/>
<path opacity="0.6" d="M858.349 527.384C858.349 527.384 822.26 492.089 765.898 498.095" stroke="#535461" stroke-miterlimit="10"/>
<path opacity="0.6" d="M964.425 542.723C964.425 542.723 898.583 548.315 874.202 573.602" stroke="#535461" stroke-miterlimit="10"/>
<path opacity="0.6" d="M884.103 597.143C884.103 597.143 847.218 590.686 813.208 612.447" stroke="#535461" stroke-miterlimit="10"/>
</g>
<g opacity="0.5">
<path opacity="0.5" d="M177.217 576.696C177.45 593.129 191.313 606.124 207.748 606.124H210.036C212.056 606.116 214 606.901 215.449 608.31C216.549 609.34 217.314 610.677 217.647 612.147C217.8 612.741 217.877 613.351 217.876 613.964V642.974C217.867 648.551 219.464 654.013 222.474 658.708C226.851 665.361 229.224 673.131 229.312 681.094V681.094C229.313 682.952 229.684 684.791 230.404 686.504C231.123 688.216 232.177 689.769 233.503 691.07C234.829 692.371 236.401 693.395 238.127 694.082C239.853 694.769 241.699 695.105 243.556 695.071C251.244 694.932 257.267 688.324 257.267 680.637V673.381L261.079 673.826V681.094C261.08 682.952 261.451 684.791 262.171 686.504C262.89 688.216 263.944 689.769 265.27 691.07C266.596 692.371 268.168 693.395 269.894 694.082C271.62 694.769 273.465 695.106 275.323 695.072C283.011 694.932 289.034 688.324 289.034 680.637V676.964C292.846 678.553 314.447 678.553 320.445 677.015L322.071 676.888V681.094C322.072 682.952 322.444 684.791 323.163 686.504C323.883 688.216 324.936 689.769 326.262 691.07C327.588 692.371 329.16 693.395 330.886 694.082C332.612 694.769 334.458 695.106 336.316 695.072C344.003 694.932 350.026 688.324 350.026 680.637V674.601L351.297 674.487V681.094C351.297 682.264 351.442 683.429 351.729 684.563C352.514 687.613 354.304 690.309 356.81 692.216C359.317 694.122 362.393 695.129 365.541 695.072C368.919 694.946 372.141 693.621 374.631 691.334C377.12 689.047 378.713 685.949 379.125 682.594C379.206 681.944 379.248 681.291 379.252 680.637V650.28C379.264 639.855 375.773 629.728 369.34 621.525C368.225 620.074 367.6 618.305 367.556 616.475C367.513 614.645 368.053 612.849 369.099 611.347C376.215 600.927 386.736 583.341 386.393 570.876C386.462 567.495 385.276 564.208 383.064 561.65C382.924 561.498 382.784 561.345 382.644 561.206C372.403 550.481 354.372 558.918 355.935 573.658C356.463 578.597 356.097 583.59 354.855 588.398C354.15 591.116 353.193 593.762 351.996 596.302C350.801 598.852 348.834 600.961 346.373 602.33C343.912 603.699 341.082 604.257 338.285 603.926C336.384 603.696 334.47 603.581 332.554 603.583H273.785C270.338 603.582 266.977 602.502 264.174 600.494C261.371 598.487 259.267 595.652 258.156 592.388C257.561 590.676 257.26 588.876 257.267 587.064V541.32C257.267 540.128 257.028 538.948 256.563 537.85C256.099 536.752 255.419 535.759 254.563 534.93C253.707 534.1 252.694 533.451 251.582 533.02C250.47 532.59 249.284 532.388 248.092 532.425C246.93 532.464 245.787 532.738 244.733 533.229C243.678 533.72 242.733 534.419 241.955 535.284C240.364 537.039 239.481 539.322 239.477 541.691C239.477 542.31 239.355 542.923 239.118 543.495C238.881 544.066 238.534 544.586 238.096 545.023C237.658 545.461 237.139 545.808 236.567 546.044C235.995 546.281 235.382 546.403 234.763 546.402H207.075C203.117 546.401 199.198 547.186 195.546 548.713C191.894 550.241 188.582 552.479 185.804 555.298C183.025 558.117 180.835 561.461 179.361 565.135C177.887 568.808 177.158 572.738 177.217 576.696V576.696Z" fill="url(#paint0_linear)"/>
<path opacity="0.5" d="M351.729 684.563C352.514 687.613 354.304 690.309 356.81 692.216C359.317 694.123 362.393 695.129 365.541 695.072C368.919 694.946 372.141 693.621 374.631 691.334C377.12 689.047 378.713 685.949 379.125 682.594C370.662 680.306 358.934 678.731 351.729 684.563Z" fill="url(#paint1_linear)"/>
<path opacity="0.5" d="M322.503 684.563C323.288 687.613 325.078 690.309 327.585 692.216C330.091 694.123 333.167 695.129 336.316 695.072C339.693 694.946 342.916 693.621 345.405 691.334C347.894 689.047 349.488 685.949 349.899 682.594C341.436 680.306 329.708 678.731 322.503 684.563Z" fill="url(#paint2_linear)"/>
<path opacity="0.5" d="M261.511 684.563C262.296 687.613 264.086 690.309 266.592 692.216C269.098 694.123 272.174 695.129 275.323 695.072C278.701 694.946 281.923 693.621 284.413 691.334C286.902 689.047 288.495 685.949 288.907 682.594C280.444 680.306 268.715 678.731 261.511 684.563Z" fill="url(#paint3_linear)"/>
<path opacity="0.5" d="M229.744 684.563C230.529 687.613 232.319 690.309 234.825 692.216C237.332 694.123 240.407 695.129 243.556 695.072C246.934 694.946 250.156 693.621 252.646 691.334C255.135 689.047 256.728 685.949 257.14 682.594C248.677 680.306 236.949 678.731 229.744 684.563Z" fill="url(#paint4_linear)"/>
<path opacity="0.5" d="M354.855 588.398C364.728 584.434 376.774 577.178 386.393 570.876C386.462 567.495 385.276 564.208 383.064 561.651C382.924 561.498 382.784 561.346 382.644 561.206C372.403 550.481 354.372 558.919 355.935 573.659C356.463 578.597 356.097 583.59 354.855 588.398V588.398Z" fill="url(#paint5_linear)"/>
<path opacity="0.5" d="M342.904 603.668C342.904 603.668 315.718 637.891 271.244 603.583Z" fill="url(#paint6_linear)"/>
<path opacity="0.5" d="M257.267 540.049C257.267 540.049 240.748 561.65 257.267 588.335Z" fill="url(#paint7_linear)"/>
<path opacity="0.5" d="M217.876 613.748C217.876 613.748 232.424 631.825 218.058 646.191Z" fill="url(#paint8_linear)"/>
<g opacity="0.1">
<path opacity="0.1" d="M216.605 609.936C217.685 610.953 217.317 611.931 217.647 613.418L264.891 601.041C262.349 599.085 259.198 596.759 258.156 593.659C252.489 598.055 241.294 605.425 216.605 609.936Z" fill="url(#paint9_linear)"/>
</g>
<path opacity="0.5" d="M215.449 608.31C216.549 609.34 217.314 610.677 217.647 612.147L263.696 600.139C261.124 598.161 259.195 595.463 258.156 592.388C252.489 596.785 240.138 603.799 215.449 608.31Z" fill="url(#paint10_linear)"/>
<path opacity="0.1" d="M256.425 594.93C256.425 594.93 242.019 605.765 217.876 609.121Z" fill="url(#paint11_linear)"/>
<path opacity="0.5" d="M256.425 593.659C256.425 593.659 242.019 604.494 217.876 607.85Z" fill="url(#paint12_linear)"/>
<g opacity="0.1">
<path opacity="0.1" d="M220.417 594.688C220.417 594.688 196.274 602.312 189.921 578.169L220.417 594.688Z" fill="url(#paint13_linear)"/>
</g>
<path opacity="0.5" d="M220.417 593.417C220.417 593.417 196.274 601.041 189.921 576.898L220.417 593.417Z" fill="url(#paint14_linear)"/>
<path opacity="0.5" d="M177.214 578.169C178.617 578.169 179.755 576.178 179.755 573.722C179.755 571.266 178.617 569.274 177.214 569.274C175.81 569.274 174.673 571.266 174.673 573.722C174.673 576.178 175.81 578.169 177.214 578.169Z" fill="url(#paint15_linear)"/>
<path opacity="0.1" d="M369.722 665.211L364.639 624.549C364.639 624.549 379.887 648.692 369.722 665.211Z" fill="url(#paint16_linear)"/>
<path opacity="0.5" d="M363.368 624.549C363.368 624.549 378.616 648.692 368.451 665.211L363.368 624.549Z" fill="url(#paint17_linear)"/>
</g>
<path d="M181.95 578.393C182.172 594.074 195.401 606.473 211.083 606.473H213.265C215.194 606.466 217.048 607.214 218.431 608.559C219.48 609.542 220.211 610.817 220.528 612.22C220.674 612.786 220.748 613.369 220.746 613.954V641.635C220.738 646.956 222.262 652.168 225.134 656.648C229.31 662.996 231.575 670.41 231.658 678.009V678.009C231.66 679.781 232.014 681.536 232.7 683.17C233.387 684.805 234.392 686.286 235.658 687.527C236.923 688.769 238.423 689.746 240.07 690.402C241.717 691.057 243.478 691.378 245.25 691.346C252.586 691.212 258.333 684.908 258.333 677.572V670.649L261.97 671.073V678.009C261.971 679.781 262.325 681.536 263.012 683.17C263.699 684.805 264.704 686.286 265.969 687.527C267.235 688.769 268.734 689.746 270.381 690.402C272.028 691.057 273.79 691.378 275.562 691.346C282.897 691.212 288.644 684.908 288.644 677.572V674.068C292.282 675.584 312.894 675.584 318.616 674.117L320.168 673.995V678.009C320.17 679.781 320.524 681.536 321.21 683.17C321.897 684.805 322.902 686.286 324.168 687.527C325.433 688.769 326.933 689.746 328.58 690.402C330.227 691.057 331.988 691.378 333.76 691.346C341.096 691.212 346.843 684.908 346.843 677.572V671.813L348.055 671.704V678.009C348.055 679.125 348.194 680.237 348.467 681.319C349.216 684.229 350.925 686.801 353.316 688.621C355.708 690.44 358.643 691.4 361.647 691.346C364.87 691.226 367.945 689.961 370.32 687.779C372.695 685.597 374.216 682.641 374.608 679.439C374.686 678.82 374.726 678.196 374.729 677.572V648.606C374.741 638.659 371.41 628.996 365.272 621.168C364.207 619.784 363.611 618.096 363.57 616.35C363.528 614.604 364.044 612.89 365.042 611.456C371.832 601.514 381.871 584.734 381.543 572.839C381.61 569.613 380.478 566.477 378.367 564.037C378.233 563.891 378.1 563.746 377.967 563.612C368.194 553.379 350.989 561.43 352.481 575.495C352.984 580.207 352.635 584.971 351.45 589.559C350.777 592.153 349.864 594.677 348.722 597.101C347.582 599.534 345.705 601.547 343.357 602.853C341.008 604.159 338.308 604.692 335.64 604.376C333.825 604.156 331.999 604.047 330.171 604.048H274.095C270.805 604.047 267.598 603.017 264.923 601.101C262.249 599.186 260.241 596.481 259.181 593.366C258.613 591.733 258.326 590.015 258.333 588.286V544.637C258.333 543.5 258.105 542.374 257.662 541.327C257.219 540.279 256.569 539.332 255.753 538.54C254.936 537.748 253.969 537.129 252.908 536.718C251.848 536.308 250.715 536.115 249.579 536.15C248.469 536.188 247.379 536.449 246.373 536.918C245.367 537.387 244.465 538.053 243.722 538.878C242.204 540.553 241.362 542.731 241.358 544.992C241.358 545.582 241.242 546.167 241.016 546.713C240.79 547.258 240.458 547.754 240.04 548.172C239.623 548.589 239.127 548.92 238.581 549.146C238.035 549.372 237.45 549.488 236.86 549.487H210.44C206.663 549.486 202.924 550.235 199.439 551.693C195.955 553.15 192.795 555.286 190.144 557.976C187.492 560.666 185.403 563.856 183.996 567.361C182.589 570.867 181.894 574.617 181.95 578.393H181.95Z" fill="#F3AD55"/>
<path d="M348.467 681.319C349.216 684.229 350.925 686.801 353.316 688.621C355.708 690.44 358.643 691.4 361.647 691.346C364.87 691.226 367.945 689.962 370.32 687.78C372.695 685.598 374.216 682.641 374.608 679.44C366.533 677.257 355.342 675.754 348.467 681.319Z" fill="#F38143"/>
<path d="M320.581 681.319C321.33 684.229 323.038 686.801 325.429 688.621C327.821 690.44 330.756 691.4 333.76 691.346C336.983 691.226 340.058 689.962 342.433 687.78C344.809 685.598 346.329 682.641 346.721 679.44C338.646 677.257 327.455 675.754 320.581 681.319Z" fill="#F38143"/>
<path d="M262.382 681.319C263.131 684.229 264.84 686.801 267.231 688.621C269.622 690.44 272.557 691.4 275.562 691.346C278.785 691.226 281.86 689.962 284.235 687.78C286.61 685.598 288.131 682.641 288.523 679.44C280.448 677.257 269.257 675.754 262.382 681.319Z" fill="#F38143"/>
<path d="M232.071 681.319C232.82 684.229 234.528 686.801 236.919 688.621C239.311 690.44 242.246 691.4 245.25 691.346C248.473 691.226 251.548 689.962 253.923 687.78C256.299 685.598 257.819 682.641 258.211 679.44C250.136 677.257 238.945 675.754 232.071 681.319Z" fill="#F38143"/>
<path d="M351.45 589.559C360.871 585.776 372.365 578.853 381.543 572.839C381.61 569.613 380.478 566.477 378.367 564.037C378.233 563.891 378.1 563.746 377.967 563.612C368.194 553.379 350.989 561.43 352.481 575.495C352.984 580.207 352.635 584.971 351.45 589.559Z" fill="#F8DEA5"/>
<path d="M340.047 604.13C340.047 604.13 314.106 636.785 271.67 604.048Z" fill="#F8DEA5"/>
<path d="M258.333 543.425C258.333 543.425 242.571 564.037 258.333 589.499Z" fill="#F8DEA5"/>
<path d="M220.746 613.748C220.746 613.748 234.628 630.997 220.92 644.704Z" fill="#F8DEA5"/>
<path opacity="0.1" d="M219.534 610.111C220.564 611.081 220.213 612.014 220.528 613.433L265.608 601.624C263.183 599.756 260.176 597.538 259.181 594.579C253.774 598.774 243.092 605.807 219.534 610.111Z" fill="black"/>
<path d="M218.431 608.559C219.48 609.542 220.211 610.818 220.528 612.221L264.468 600.763C262.013 598.875 260.173 596.301 259.181 593.367C253.774 597.562 241.989 604.255 218.431 608.559Z" fill="#383F4D"/>
<path opacity="0.1" d="M257.529 595.792C257.529 595.792 243.783 606.13 220.746 609.333Z" fill="black"/>
<path d="M257.529 594.579C257.529 594.579 243.783 604.918 220.746 608.121Z" fill="#F3AD55"/>
<path opacity="0.1" d="M216.171 599.561C216.171 599.561 193.134 606.836 187.072 583.799L216.171 599.561Z" fill="black"/>
<path d="M216.171 598.349C216.171 598.349 193.134 605.623 187.072 582.586L216.171 598.349Z" fill="#F3AD55"/>
<path d="M181.947 579.799C183.287 579.799 184.372 577.899 184.372 575.555C184.372 573.211 183.287 571.312 181.947 571.312C180.608 571.312 179.522 573.211 179.522 575.555C179.522 577.899 180.608 579.799 181.947 579.799Z" fill="#383F4D"/>
<path opacity="0.1" d="M365.636 662.853L360.786 624.054C360.786 624.054 375.336 647.091 365.636 662.853" fill="black"/>
<path d="M359.574 624.054C359.574 624.054 374.123 647.091 364.423 662.853L359.574 624.054Z" fill="#F3AD55"/>
<path opacity="0.1" d="M258.333 602.562C258.333 602.562 329.552 642.791 382.624 622.012C403.154 613.975 417.938 595.868 422.817 574.368C425.563 562.359 430.366 550.916 437.013 540.544C456.241 510.561 490.023 493.218 525.638 493.72C562.55 494.241 631.829 489.226 652.144 446.362" stroke="#383F4D" stroke-width="2" stroke-miterlimit="10"/>
<path d="M258.333 601.35C258.333 601.35 329.552 641.578 382.624 620.8C403.154 612.762 417.938 594.656 422.817 573.155C425.563 561.147 430.366 549.703 437.013 539.332C456.241 509.349 490.023 492.006 525.638 492.508C562.55 493.028 631.829 488.013 652.144 445.149" stroke="#383F4D" stroke-width="2" stroke-miterlimit="10"/>
<path d="M665.195 418.028C665.195 418.028 633.882 454.545 640.463 456.93C647.044 459.314 677.771 433.221 675.796 423.996L665.195 418.028Z" fill="#A0616A"/>
<path d="M849.497 451.87C849.497 451.87 866.497 496.87 859.497 496.87C852.497 496.87 832.497 461.87 837.497 453.87L849.497 451.87Z" fill="#A0616A"/>
<path d="M881.784 726.314C893.608 709.648 898.812 693.028 893.407 689.193C888.002 685.359 874.034 695.76 862.21 712.426C850.386 729.092 845.182 745.711 850.587 749.546C855.992 753.381 869.96 742.98 881.784 726.314Z" fill="#2F2E41"/>
<path d="M755.795 746.494C771.328 733.216 780.429 718.369 776.123 713.331C771.816 708.293 755.733 714.973 740.2 728.25C724.667 741.528 715.566 756.375 719.872 761.413C724.179 766.451 740.262 759.771 755.795 746.494Z" fill="#2F2E41"/>
<path d="M860.074 179.489C857.267 175.52 853.814 172.051 850.852 168.196C844.023 159.308 841.66 147.466 832.496 140.65C823.428 133.906 809.037 127.268 797.69 127.8C782.734 128.501 770.87 140.103 760.561 150.959C752.682 159.256 744.804 167.552 736.925 175.849C731.225 181.851 725.315 188.223 723.261 196.241C721.287 203.947 723.213 212.225 726.828 219.312C730.584 226.5 735.853 232.789 742.271 237.747C750.183 226.853 761.267 211.81 761.267 211.81L763.848 249.227C777.252 253.669 791.651 254.543 805.776 253.56L809.96 238.219L814.352 252.711C831.232 250.473 848.19 244.645 858.64 231.472C870.192 216.909 870.806 194.667 860.074 179.489Z" fill="#2F2E41"/>
<path d="M795.497 212.87C812.618 212.87 826.497 198.99 826.497 181.87C826.497 164.749 812.618 150.87 795.497 150.87C778.376 150.87 764.497 164.749 764.497 181.87C764.497 198.99 778.376 212.87 795.497 212.87Z" fill="#A0616A"/>
<path d="M775.497 196.87C775.497 196.87 777.497 220.87 764.497 222.87C751.497 224.87 737.497 222.87 737.497 230.87C737.497 238.87 747.497 311.87 747.497 311.87L772.497 309.87L807.497 275.87L826.497 238.87C826.497 238.87 803.497 228.87 813.497 198.87L775.497 196.87Z" fill="#A0616A"/>
<path d="M760.497 297.87L750.497 270.87L752.497 233.87C752.497 233.87 774.454 230.87 773.975 212.87L757.497 219.87L719.497 225.87V260.87C719.497 260.87 706.497 281.87 721.497 302.87L728.497 346.87L800.497 341.87L823.497 311.87L852.497 254.87L822.497 232.87L826.497 226.87L811.195 216.89L813.497 235.87L806.497 247.87C806.497 247.87 774.497 253.87 760.497 297.87Z" fill="#D0CDE1"/>
<path d="M725.497 227.87L719.497 225.87C719.497 225.87 707.497 230.87 707.497 246.87C707.497 262.87 659.497 420.87 659.497 420.87L681.497 426.87L711.497 353.87L729.497 292.87L725.497 227.87Z" fill="#D0CDE1"/>
<path d="M844.497 254.87H852.497C852.497 254.87 857.497 250.87 856.497 279.87C855.497 308.87 859.497 461.87 859.497 461.87L830.497 459.87L823.497 294.87L844.497 254.87Z" fill="#D0CDE1"/>
<path d="M806.277 334.331C806.277 334.331 738.497 321.87 723.497 333.87C724.888 335.551 725.601 337.69 725.497 339.87C725.497 343.87 727.497 338.87 725.497 343.87C723.497 348.87 719.497 344.87 723.497 348.87C727.497 352.87 728.497 351.87 726.497 354.87C724.497 357.87 726.497 362.87 726.497 362.87C726.497 362.87 715.497 414.87 725.497 451.87C735.497 488.87 818.497 749.87 840.497 742.87C862.497 735.87 917.497 703.87 914.497 692.87C911.497 681.87 810.497 529.87 810.497 529.87C810.497 529.87 852.497 398.87 802.497 356.87C802.497 356.87 805.497 352.87 804.497 349.87C803.497 346.87 802.497 349.87 803.497 346.87C804.497 343.87 809.497 343.87 806.497 340.87C803.497 337.87 806.277 334.331 806.277 334.331Z" fill="#2F2E41"/>
<path d="M760.497 441.87C760.497 441.87 692.497 745.87 706.497 750.87C720.497 755.87 774.497 756.87 778.497 750.87C782.497 744.87 810.497 529.87 810.497 529.87L760.497 441.87Z" fill="#2F2E41"/>
<path d="M761.997 159.37C761.997 159.37 786.997 189.37 836.997 172.37L822.997 147.37L789.997 137.37L761.997 159.37Z" fill="#2F2E41"/>
</g>
<defs>
<linearGradient id="paint0_linear" x1="281.808" y1="695.074" x2="281.808" y2="532.421" gradientUnits="userSpaceOnUse">
<stop stop-color="#808080" stop-opacity="0.25"/>
<stop offset="0.53514" stop-color="#808080" stop-opacity="0.12"/>
<stop offset="1" stop-color="#808080" stop-opacity="0.1"/>
</linearGradient>
<linearGradient id="paint1_linear" x1="15913.5" y1="10781.2" x2="15913.5" y2="10569.7" gradientUnits="userSpaceOnUse">
<stop stop-color="#808080" stop-opacity="0.25"/>
<stop offset="0.53514" stop-color="#808080" stop-opacity="0.12"/>
<stop offset="1" stop-color="#808080" stop-opacity="0.1"/>
</linearGradient>
<linearGradient id="paint2_linear" x1="16684.9" y1="10781.2" x2="16684.9" y2="10569.7" gradientUnits="userSpaceOnUse">
<stop stop-color="#808080" stop-opacity="0.25"/>
<stop offset="0.53514" stop-color="#808080" stop-opacity="0.12"/>
<stop offset="1" stop-color="#808080" stop-opacity="0.1"/>
</linearGradient>
<linearGradient id="paint3_linear" x1="18294.8" y1="10781.2" x2="18294.8" y2="10569.7" gradientUnits="userSpaceOnUse">
<stop stop-color="#808080" stop-opacity="0.25"/>
<stop offset="0.53514" stop-color="#808080" stop-opacity="0.12"/>
<stop offset="1" stop-color="#808080" stop-opacity="0.1"/>
</linearGradient>
<linearGradient id="paint4_linear" x1="19133.3" y1="10781.2" x2="19133.3" y2="10569.7" gradientUnits="userSpaceOnUse">
<stop stop-color="#808080" stop-opacity="0.25"/>
<stop offset="0.53514" stop-color="#808080" stop-opacity="0.12"/>
<stop offset="1" stop-color="#808080" stop-opacity="0.1"/>
</linearGradient>
<linearGradient id="paint5_linear" x1="18107.3" y1="19384" x2="18107.3" y2="18358.4" gradientUnits="userSpaceOnUse">
<stop stop-color="#808080" stop-opacity="0.25"/>
<stop offset="0.53514" stop-color="#808080" stop-opacity="0.12"/>
<stop offset="1" stop-color="#808080" stop-opacity="0.1"/>
</linearGradient>
<linearGradient id="paint6_linear" x1="45157.9" y1="10046" x2="45157.9" y2="9812.83" gradientUnits="userSpaceOnUse">
<stop stop-color="#808080" stop-opacity="0.25"/>
<stop offset="0.53514" stop-color="#808080" stop-opacity="0.12"/>
<stop offset="1" stop-color="#808080" stop-opacity="0.1"/>
</linearGradient>
<linearGradient id="paint7_linear" x1="5241.27" y1="28924.1" x2="5241.27" y2="26592.5" gradientUnits="userSpaceOnUse">
<stop stop-color="#808080" stop-opacity="0.25"/>
<stop offset="0.53514" stop-color="#808080" stop-opacity="0.12"/>
<stop offset="1" stop-color="#808080" stop-opacity="0.1"/>
</linearGradient>
<linearGradient id="paint8_linear" x1="4862.36" y1="21561.7" x2="4862.36" y2="20509.2" gradientUnits="userSpaceOnUse">
<stop stop-color="#808080" stop-opacity="0.25"/>
<stop offset="0.53514" stop-color="#808080" stop-opacity="0.12"/>
<stop offset="1" stop-color="#808080" stop-opacity="0.1"/>
</linearGradient>
<linearGradient id="paint9_linear" x1="33664.7" y1="12704.3" x2="33664.7" y2="12313.9" gradientUnits="userSpaceOnUse">
<stop stop-color="#808080" stop-opacity="0.25"/>
<stop offset="0.53514" stop-color="#808080" stop-opacity="0.12"/>
<stop offset="1" stop-color="#808080" stop-opacity="0.1"/>
</linearGradient>
<linearGradient id="paint10_linear" x1="33693.8" y1="12677.9" x2="33693.8" y2="12287.5" gradientUnits="userSpaceOnUse">
<stop stop-color="#808080" stop-opacity="0.25"/>
<stop offset="0.53514" stop-color="#808080" stop-opacity="0.12"/>
<stop offset="1" stop-color="#808080" stop-opacity="0.1"/>
</linearGradient>
<linearGradient id="paint11_linear" x1="27059.9" y1="9232.23" x2="27059.9" y2="9030.83" gradientUnits="userSpaceOnUse">
<stop stop-color="#808080" stop-opacity="0.25"/>
<stop offset="0.53514" stop-color="#808080" stop-opacity="0.12"/>
<stop offset="1" stop-color="#808080" stop-opacity="0.1"/>
</linearGradient>
<linearGradient id="paint12_linear" x1="27059.9" y1="9212.92" x2="27059.9" y2="9011.52" gradientUnits="userSpaceOnUse">
<stop stop-color="#808080" stop-opacity="0.25"/>
<stop offset="0.53514" stop-color="#808080" stop-opacity="0.12"/>
<stop offset="1" stop-color="#808080" stop-opacity="0.1"/>
</linearGradient>
<linearGradient id="paint13_linear" x1="22400" y1="11092.5" x2="22400" y2="10780.5" gradientUnits="userSpaceOnUse">
<stop stop-color="#808080" stop-opacity="0.25"/>
<stop offset="0.53514" stop-color="#808080" stop-opacity="0.12"/>
<stop offset="1" stop-color="#808080" stop-opacity="0.1"/>
</linearGradient>
<linearGradient id="paint14_linear" x1="22400" y1="11068.7" x2="22400" y2="10756.8" gradientUnits="userSpaceOnUse">
<stop stop-color="#808080" stop-opacity="0.25"/>
<stop offset="0.53514" stop-color="#808080" stop-opacity="0.12"/>
<stop offset="1" stop-color="#808080" stop-opacity="0.1"/>
</linearGradient>
<linearGradient id="paint15_linear" x1="-3084.99" y1="5708.01" x2="-3084.99" y2="5628.89" gradientUnits="userSpaceOnUse">
<stop stop-color="#808080" stop-opacity="0.25"/>
<stop offset="0.53514" stop-color="#808080" stop-opacity="0.12"/>
<stop offset="1" stop-color="#808080" stop-opacity="0.1"/>
</linearGradient>
<linearGradient id="paint16_linear" x1="5206.67" y1="27652.8" x2="5206.67" y2="25999.4" gradientUnits="userSpaceOnUse">
<stop stop-color="#808080" stop-opacity="0.25"/>
<stop offset="0.53514" stop-color="#808080" stop-opacity="0.12"/>
<stop offset="1" stop-color="#808080" stop-opacity="0.1"/>
</linearGradient>
<linearGradient id="paint17_linear" x1="5216.3" y1="27652.8" x2="5216.3" y2="25999.4" gradientUnits="userSpaceOnUse">
<stop stop-color="#808080" stop-opacity="0.25"/>
<stop offset="0.53514" stop-color="#808080" stop-opacity="0.12"/>
<stop offset="1" stop-color="#808080" stop-opacity="0.1"/>
</linearGradient>
<clipPath id="clip0">
<rect width="1004.92" height="901" fill="white"/>
</clipPath>
</defs>
</svg>
